<svg xmlns="http://www.w3.org/2000/svg" width="32" height="30" fill="none" viewBox="0 0 32 30"><path fill="#EDB01A" fill-rule="evenodd" d="M25.514 1.384c-.768 1.019-2.324 2.77-3.398 3.824-1.219 1.195-2.579 2.345-3.81 3.22l-.69.492.184.263c1.604 2.3 2.135 4.536 1.745 7.357-.07.504-.215 1.276-.322 1.716s-.185.808-.173.82c.043.043.412-.52.604-.921.579-1.215.882-2.717.878-4.348l-.003-1.046 2.03-2.003c2.203-2.174 3.177-3.205 3.676-3.89l.32-.44-.036-1.069a22 22 0 0 0-.138-1.823c-.11-.81-.384-2.094-.505-2.369L25.803 1zM5.707 2.668c-1.085.152-2.195.713-3.054 1.544-.938.906-1.47 2.015-1.606 3.348-.04.395-.056 2.897-.041 6.698.02 5.267.036 6.12.125 6.476.49 1.979 1.833 3.487 3.485 3.914.212.055.544.117.738.14.194.02.432.053.529.071l.176.033.017 2.054L6.093 29l2.072-2.02 2.072-2.019.656-.01c1.047-.018 1.884-.255 2.893-.82 1.303-.73 2.61-1.982 3.52-3.37.224-.341.774-1.478.942-1.946.353-.983.666-2.82.476-2.79-.026.004-3.247.004-7.158 0l-7.11-.008V9.98h6.291c3.46 0 6.292-.017 6.292-.038s-.166-.282-.369-.582c-.203-.299-.378-.563-.39-.587-.01-.023.596-.557 1.349-1.187l2.84-2.374 1.47-1.23-.251-.213c-.365-.31-1.264-.772-1.856-.956l-.514-.159-6.709-.007c-3.69-.004-6.796.005-6.902.02M28.154 5.71c-1.256 1.937-2.625 3.526-5.122 5.946l-1.567 1.519-.062.713c-.104 1.184-.245 2.135-.41 2.776-.378 1.458-1.143 2.86-2.388 4.374-.745.907-.777 1.009-.148.473.896-.764 1.902-1.931 2.561-2.972.725-1.144 1.347-2.669 1.495-3.662l.076-.513.355-.257c.316-.23 2.042-1.6 2.224-1.767.039-.036.284-.249.545-.473 1.492-1.283 2.874-2.71 2.886-2.978.023-.543.02-3.813-.003-3.812-.018 0-.217.286-.442.633m2.496 2.207a57 57 0 0 1-2.326 2.786c-1.264 1.381-3.296 3.219-4.681 4.235-.352.257-.365.279-.443.687-.463 2.447-2.614 5.06-5.945 7.221-.5.325-.926.59-.948.59-.023 0-.149.068-.28.152s-.601.337-1.042.565c-.893.459-.876.491.16.316 2.975-.503 5.779-1.728 8.25-3.604 1.117-.847 2.76-2.538 3.513-3.613.15-.213.3-.42.333-.459.208-.24 1.333-2.165 1.778-3.04.92-1.815 1.4-3.16 1.749-4.905.241-1.21.259-1.321.21-1.318-.022.001-.17.176-.328.387m-24.174 3.52c-.02.051-.027.939-.017 1.974l.019 1.882.465.018.466.019v-1.44l.561-.022c.731-.029 1.1-.194 1.344-.601a1.22 1.22 0 0 0-.214-1.539c-.29-.269-.505-.316-1.578-.35-.845-.026-1.016-.017-1.046.06m3.886 1.915v1.989l1.023-.029c.991-.028 1.035-.035 1.437-.229.752-.362 1.071-.89 1.071-1.771 0-.523-.134-.917-.428-1.253-.447-.51-1.076-.695-2.38-.696h-.723zm4.473-1.947c-.024.023-.043.915-.043 1.983v1.942l.465-.019.466-.018.018-.802.018-.802h1.216V13h-1.22v-.88h1.605v-.755H16.12c-.683 0-1.26.019-1.284.042m-7.426 1.24v.541h.311c.171 0 .399-.03.505-.066.327-.111.444-.548.219-.82-.101-.123-.195-.15-.578-.171l-.457-.026zm3.852.699v1.163h.37c.892 0 1.32-.378 1.322-1.165.002-.765-.429-1.162-1.263-1.162h-.43z" clip-rule="evenodd"/><path fill="#EDB01A" fill-rule="evenodd" d="m21.509 13.147 1.078 1.316-.062.417c-.148.994-.77 2.518-1.494 3.662-.66 1.04-1.665 2.208-2.562 2.972-.629.536-.597.434.149-.473 1.244-1.514 2.009-2.916 2.387-4.374.166-.64.306-1.592.41-2.776l.062-.713zm-3.617-4.412 3.01 3.672-.361.356.003 1.047c.005 1.63-.299 3.133-.878 4.347-.191.4-.56.964-.604.921-.012-.011.066-.38.173-.82s.252-1.212.322-1.716c.39-2.821-.14-5.058-1.745-7.357l-.183-.263z" clip-rule="evenodd"/></svg>
